<?xml version="1.0" encoding="utf-8"?>
<svg viewBox="125.763 159.414 231.566 140.11" width="231.566" height="140.11" xmlns="http://www.w3.org/2000/svg">
  <g transform="matrix(0.031744, 0, 0, -0.033904, -12.361844, 419.406555)" fill="#D1D5DB" stroke="none">
    <path d="M7116 7663 c-42 -11 -96 -54 -121 -97 -37 -64 -43 -130 -16 -192 43 -96 104 -138 201 -137 77 0 127 20 165 65 99 118 60 295 -77 352 -36 15 -111 19 -152 9z" style="fill: rgb(0, 0, 0);"/>
    <path d="M4895 7534 c-142 -35 -250 -92 -348 -183 -39 -36 -104 -133 -139 -207 -56 -120 -59 -156 -56 -709 l3 -503 31 -39 c41 -51 87 -73 153 -73 66 0 123 29 154 80 22 35 22 41 27 535 l5 500 28 57 c30 62 83 115 149 150 65 34 184 32 254 -4 28 -15 70 -49 94 -75 78 -89 74 -58 80 -625 l5 -506 31 -39 c41 -51 87 -73 153 -73 73 0 131 34 160 93 20 41 21 59 21 338 0 276 1 299 22 359 57 169 256 257 407 181 64 -33 126 -95 152 -154 23 -50 24 -62 29 -378 l5 -326 29 -37 c47 -62 81 -78 157 -74 80 4 130 33 159 94 19 38 20 61 20 370 0 300 -2 336 -20 402 -51 185 -176 343 -334 424 -122 62 -163 72 -316 72 -140 0 -148 -1 -230 -33 -47 -17 -92 -34 -101 -37 -13 -4 -25 10 -48 58 -78 157 -222 282 -394 340 -48 17 -91 22 -192 24 -71 1 -139 0 -150 -2z" style="fill: rgb(0, 0, 0);"/>
    <path d="M8216 7529 c-133 -31 -238 -89 -331 -184 -120 -122 -178 -246 -196 -419 -5 -56 -9 -292 -7 -536 3 -497 2 -487 87 -542 41 -26 53 -29 113 -26 57 3 73 8 105 34 72 58 72 60 72 591 1 448 2 475 21 526 27 73 79 130 148 164 47 23 70 28 132 28 126 -1 224 -62 273 -172 l26 -58 1 -470 c2 -486 4 -523 44 -578 50 -69 178 -89 251 -39 79 55 79 56 85 422 5 321 5 326 30 373 97 191 339 231 485 81 80 -82 79 -78 85 -444 3 -179 9 -334 14 -345 34 -76 95 -115 178 -115 67 0 111 23 152 79 l31 43 3 310 c4 370 -3 424 -74 566 -61 125 -173 240 -284 294 -134 65 -170 73 -320 73 -140 -1 -181 -9 -283 -55 -52 -23 -70 -18 -83 23 -16 50 -90 151 -157 212 -79 74 -189 133 -298 159 -71 17 -238 20 -303 5z" style="fill: rgb(0, 0, 0);"/>
    <path d="M10880 7163 c-49 -6 -146 -37 -205 -65 -156 -73 -287 -223 -343 -392 -33 -99 -41 -256 -18 -358 53 -240 218 -419 461 -504 62 -21 247 -30 327 -15 155 28 309 122 401 244 61 80 83 121 117 217 32 89 35 305 6 390 -81 238 -236 393 -461 462 -60 18 -219 30 -285 21z m200 -382 c91 -34 158 -103 188 -192 35 -101 1 -243 -75 -315 -65 -61 -136 -89 -223 -88 -325 4 -421 437 -129 583 76 38 160 42 239 12z" style="fill: rgb(0, 0, 0);"/>
    <path d="M7105 7038 c-32 -17 -76 -61 -91 -90 -11 -22 -14 -113 -14 -507 0 -315 4 -489 11 -508 26 -69 95 -113 179 -113 79 0 133 37 165 112 13 32 15 105 15 503 0 493 -1 507 -48 558 -45 50 -164 75 -217 45z" style="fill: rgb(0, 0, 0);"/>
    <path d="M4881 5473 c-38 -7 -100 -51 -121 -86 -26 -42 -34 -104 -21 -154 22 -83 244 -357 475 -589 490 -490 1086 -827 1766 -999 315 -80 556 -108 915 -109 317 -1 470 14 755 70 747 148 1411 503 1945 1038 130 131 178 183 266 292 122 150 197 259 209 302 12 47 -4 127 -34 167 -33 42 -87 67 -150 69 -83 1 -116 -22 -209 -148 -337 -457 -781 -830 -1272 -1066 -382 -184 -705 -276 -1164 -330 -206 -24 -661 -9 -886 30 -33 6 -87 15 -120 21 -163 28 -484 127 -665 206 -594 258 -1035 605 -1424 1120 -88 117 -122 148 -174 163 -38 10 -50 11 -91 3z" style="fill: rgb(0, 0, 0);"/>
  </g>
</svg>